# xmcd
#
# Track frame offsets:
#	150
#	11517
#	32872
#	59443
#	83709
#	105511
#	133446
#	154052
#	199891
#	213879
#	235328
#	257458
#	277696
#	298158
#	330574
#
# Disc length: 4715 seconds
#
# Revision: 1
# Processed by: cddbd v1.5.2PL0 Copyright (c) Steve Scherf et al.
# Submitted via: EasyCDDAExtractor 9.0.0.1
#
DISCID=d312690f
DTITLE=Ozzy Osbourne - Kouseinenkin-Kaikan Tokyo 29-06-84
DYEAR=1984
DGENRE=Hard Rock
TTITLE0=Opening
TTITLE1=I Don't Know
TTITLE2=Mr Crowley
TTITLE3=Rock 'N' Roll Rebell
TTITLE4=Bark At The Moon
TTITLE5=Revelation (Mother Earth)
TTITLE6=Steal Away (The Night)
TTITLE7=Suicide Solution
TTITLE8=Keyboards Solo
TTITLE9=Centre Of Eternity
TTITLE10=Drums Solo
TTITLE11=Flying High Again
TTITLE12=Iron Man
TTITLE13=Crazy Train
TTITLE14=Paranoid
EXTD=
EXTT0=
EXTT1=
EXTT2=
EXTT3=
EXTT4=
EXTT5=
EXTT6=
EXTT7=
EXTT8=
EXTT9=
EXTT10=
EXTT11=
EXTT12=
EXTT13=
EXTT14=
PLAYORDER=
